<?xml version="1.0" standalone="no"?>
<!DOCTYPE svg PUBLIC "-//W3C//DTD SVG 1.1//EN" "http://www.w3.org/Graphics/SVG/1.1/DTD/svg11.dtd">
<svg xmlns="http://www.w3.org/2000/svg">
<metadata>Copyright (C) 2016 by original authors @ fontello.com</metadata>
<defs>
<font id="jade-press" horiz-adv-x="1000" >
<font-face font-family="jade-press" font-weight="400" font-stretch="normal" units-per-em="1000" ascent="850" descent="-150" />
<missing-glyph horiz-adv-x="1000" />
<glyph glyph-name="jadepress1" unicode="&#xe800;" d="M37 174c62 60 76 130 75 207 0 41 1 83 5 124 3 26 17 47 46 60-27-53-11-106-9-159 4-99-11-177-117-232z m462-89c-2 127 18 255-6 386-3-4-3-1-1-1 14 6 28 12 42 18 2-14 7-28 6-42-1-47-4-94-7-141-3-64-6-128-10-192-1-11-10-21-15-32-3 2-6 3-9 4z m-142 287c13 72 25 143 38 216 22-2 32-18 27-52-12-71-24-141-34-212-4-27-3-54-5-80 2-1 5-2 7-3 7 8 15 16 22 25 1-1 2-2 3-2-9-15-18-29-29-45-21 16-27 36-26 57 1 26 5 52 6 77 0 6-6 13-9 19l0 0z m624 77c-14-22-27-43-41-67 20-2 37-4 53-6 7-36-13-69-54-73 12 24 22 43 34 65-14 2-27 3-34 3-13-23-24-43-38-62-3-4-13-3-21-4 1 6-1 14 1 19 8 15 18 28 28 45-15 1-28 2-40 3-10 36 6 68 46 83-6-11-9-22-13-23-26 0-28-20-27-37 0-22 22-13 35-16 5-1 10-1 16-1 6 33 15 62 46 76 3-1 6-3 9-5z m-510-110c-18-22-34-22-50 4-16 25-12 59 12 79 7 7 21 11 29 8 7-2 14-17 13-26-1-7-11-15-19-21-6-6-20-9-21-15-2-10 1-25 7-31 5-5 19 1 29 2z m383 4c-9-11-18-27-39-16-20 10-32 45-23 67 5 11 12 23 21 30 7 6 22 10 28 6 7-4 12-17 12-26 0-7-10-15-16-21-7-6-21-9-23-16-3-10 1-29 7-30 9-3 22 4 33 6z m-185 7c-14-21-27-37-46-25-13 9-19 28-33 49-15-29-29-53-42-78-1 1-3 2-4 2 15 32 30 63 46 94 4 6 14 12 21 12 4 0 10-11 13-17 4-7 5-16 7-23 6-15 13-29 38-14z m-413 71c-46-20-75-62-65-97 8 4 15 8 22 12 1-1 2-3 3-4-7-6-16-18-21-16-9 4-19 13-23 22-10 26 29 94 57 99 9 2 19-5 29-7-1-3-2-6-2-9z m-143 117c-26-36-65-53-91-41-21 9-25 25-20 49 35-38 73-19 111-8z m244-166c-8-22-14-46-25-67-7-14-21-10-29 3-25 39 1 99 55 112-15-20-29-36-39-53-10-19-13-40-1-64 24 19 30 45 39 69 0 0 0 0 0 0z m380-49c9 10 18 20 27 30 1 0 2-1 2-1-4-8-6-18-13-23-8-6-19-12-29-11-6 0-13 13-15 21-3 18-4 36-6 56 19 3 26-6 25-25 0-15 0-29 0-44 3-1 6-2 9-3z m-493 58c5-17 9-31 14-47 9 5 15 9 22 13 1-1 2-2 3-3-6-7-12-21-19-22-8 0-21 9-25 17-5 11-16 27 5 42z" horiz-adv-x="1000" />

<glyph glyph-name="spin2" unicode="&#xe801;" d="M46 144l0 0c0 0-1 0-1 0-8 18-15 37-21 55-6 19-11 38-15 58-19 99-8 203 35 298 3 6 10 8 15 5 1 0 2 0 2-1l0 0 80-59c5-3 6-9 4-14-5-12-9-25-12-38-4-12-7-26-9-39-11-67-3-137 23-201 2-5 0-10-4-13l0 0-80-56c-5-4-12-3-16 3-1 0-1 1-1 2l0 0z m120 574l0 0c0 1 0 1 0 1 15 13 30 25 46 37 16 11 33 22 51 31 89 50 192 72 297 60 6-1 10-6 10-13 0-1-1-1-1-2l0 0-31-94c-2-5-8-8-13-7-13 0-27 0-40 0-14-1-27-2-40-4-68-11-133-40-186-84-4-3-10-3-14 0l0 0-79 58c-5 3-6 11-2 16 0 0 1 1 2 1l0 0z m588 65l0 0c0 0 1 0 1 0 17-10 34-21 50-32 16-12 31-25 46-38 74-69 127-160 148-262 2-6-2-12-9-13-1 0-1 0-2 0l0 0-100 1c-5 0-10 4-11 9-3 13-8 26-12 38-5 12-10 25-17 36-31 61-78 113-137 150-5 3-6 8-5 13l0 0 31 92c2 6 9 9 15 7 1 0 2-1 2-1l0 0z m244-535l0 0c0 0 0 0 0 0-4-20-9-39-15-57-7-19-14-37-22-55-44-92-114-170-205-221-6-3-13-1-16 4 0 1-1 2-1 2l0 0-30 94c-2 6 1 12 6 14 11 7 22 15 32 23 11 9 21 18 30 27 49 48 84 109 101 176 2 5 6 8 11 8l0 0 98-1c6 0 11-5 11-11 0-1 0-2 0-3l0 0z m-438-395l0 0c0 0 0 0 0 0-20-2-40-3-60-3-20 0-40 1-59 4-102 12-198 54-276 125-5 4-5 11 0 16 0 0 1 1 1 1l0 0 81 58c5 3 12 2 16-2 10-8 20-16 32-23 11-7 22-14 34-20 62-31 131-45 200-41 6 0 10-3 12-8l0 0 29-92c2-6-1-12-7-14-1-1-2-1-3-1l0 0z" horiz-adv-x="1000" />

<glyph glyph-name="qq" unicode="&#xe802;" d="M976 690q0 40-20 74t-54 54-75 20h-679q-24 0-46-7t-41-21-32-33-22-40-7-47v-679q0-61 44-105t104-43h679q62 0 105 43t44 105v679z m-180-463v-5-5l4-5 2-9-1-8-2-8v-3l-2-4-1-2-2-4-2-2-2-2-2-3-2-1-3-1-2 2-2 3h-1-2l-1-3h-3-1l-2 1-2 1-2 2-3 3-3 5-3 5-3 4-3 4-4 9-4 2-1-6-2 5-1 1-2-2-3-7-3-11-6-14-4-6-5-7-5-8-6-9-3-3-3-4-8-8 0-1 1 0 4-2 17-8 8-5 7-4 6-5 6-5 3-2 2-3 3-3 2-4 1-2 1-3v-3l-2-3-4-3v-2l2-3 1-2v-2l-1-2-2-4-3-3-2-3-2-2-5-3-4-2-6-3-6-3-6-2-4-1-3-1-8-2-7-2-8-1-9-2-9-3-10-4h-8-10-10l-10 4-9 2-10 2-11 1-11 2-9 3-11 2-10 3-11 4-10 2-5 2-4 1-4-1-3-1h-4-4l-10 3-5 1-6 1-4-3-6-3-7-3-9-5-5-2-5-2-11-5-7-2-7-2-9-1-6-1h-5l-7-1-7-1h-8-7-15l-18 1-17 2-8 1-8 1-8 1-8 2-8 2-6 2-7 3-6 2-6 3-6 3-5 3-1 2-3 2-2 2-1 2-2 2-1 3-1 4v3 3 2 3 3 3 1 4 2l1 4 1 3 2 5 2 1 1 2 3 4 3 2 2 1 3 2 3 1 3 2 4 2 4 1 4 1 4 1 4 1 5 1 6 1 1 2h1l-6-2v1l2 1-1 2-7 5-4 4-5 6-6 5-7 8-7 8-2 5-4 3-3 6-3 6-3 5-2 6-2 7-3 7-2 6-2 10-1 3h-1-1l-1-3v-1l-1-2-1-2v-1l-1-3-4-5-2-4-2-3-3-4-4-5-3-3-5-4-2-4-5-2-4-3-5-2-5-1h-5-1-2l-1 2-1 1-2 5-1 2-2 4-1 4v4l-1 9 1 5v4 12l-1 12 1 7v7l1 6 2 7 2 7 3 8 3 8 3 6 4 7 3 9 5 7 5 8 5 8 5 7 5 6 6 6 6 7 3 3 3 4 6 4 5 5 7 6 7 5 2 2-1 4-7 5-6 3v3 5 4l7 4 4 4 3 5 3 6 4 6 5 6v4 4 5l2 5 1 6 2 3 1 3-3 3-3 2v4 5 6l6 7 4 8 4 10 2 11 3 6 2 7 3 5 3 6 3 7 3 7 4 7 5 7 2 4 2 3 6 7 5 8 5 8 7 7 7 7 7 7 9 8 6 5 6 6 7 4 7 5 8 4 8 3 8 4 8 2 9 3 9 3 10 3 8 1 10 2 10 1 10 2h10 10 10 11l9-1 10-1 11-1 10-3 10-2 9-2 10-3 10-4 10-3 9-4 9-4 8-6 9-5 8-5 2-3 4-2 7-6 5-6 6-5 6-6 5-7 5-6 4-7 3-6 4-7 4-6 6-13 2-7 3-6 2-7 2-6 1-5 2-7 3-12 2-10 2-9 1-8 2-12v-2l1-2 3-7 3-4 2-3 3-5 2-6 2-6 2-6 1-7-2-3-1-4v-2-4-4-4-8-4-5-1l-1-2 1-3 9-12 7-11 4-6 4-8 4-8 4-8 5-9 5-11 3-7 3-7 2-6 2-6 2-7 2-6 2-12-3-11-4-11v-6z" horiz-adv-x="976.6" />

<glyph glyph-name="weixin" unicode="&#xe803;" d="M275 561q-16 0-29-10t-14-26q0-8 4-15t10-11 14-7 15-3q17 0 27 10t10 26-10 26-27 10z m297-210q-10 0-19-9t-9-19q0-8 4-14t11-11 13-5q17 0 27 9t9 20-9 20-27 9z m402 339q0 61-44 105t-105 43h-677q-61 0-104-43t-44-105v-677q0-61 44-105t104-43h677q62 0 105 43t44 105v677z m-604-498q-28 0-101 14l-102-50 29 87q-116 81-116 195 0 68 39 125t106 89 145 33q107 0 190-58t102-146q-15 2-28 2-50 0-96-18t-78-49-53-73-19-90q0-29 9-60-15-1-27-1z m427-102l21-72-79 44q-57-15-87-15-102 0-174 62t-72 148 72 149 174 61q99 0 173-62t73-148q0-91-101-167z m-66 261q-10 0-19-9t-9-19 9-20 19-10q17 0 27 9t11 20-11 20-27 9z m-252 138q16 0 26 10t10 26-10 26-26 10q-18 0-31-10t-13-26q0-5 2-10t4-9 8-7 9-5 9-4 12-1z" horiz-adv-x="976.6" />

<glyph glyph-name="weibo" unicode="&#xe804;" d="M847-147h-694q-62 0-107 44t-44 108v693q0 63 44 108t107 44h694q41 0 76-20t55-56 20-76v-693q0-31-12-59t-32-49-49-32-58-12z m-346 666q0 15-2 27t-11 26-22 21-39 7-60-13q-33-10-68-34t-62-48-47-49-34-38-10-14q-33-43-48-85t-15-64v-20q5-40 21-72t42-55 56-39 66-28 70-16 70-8q73-6 150 11t145 59 95 101q18 47 17 79t-23 54-40 32-35 14q-30 6-17 24l3 6q2 4 6 16t4 22-4 24-16 25q-13 14-35 18t-44 1-42-9-32-11l-13-5q-7-3-13-4t-10-1-6 3-3 4 0 7 1 9 2 10z m262-72q0-6 3-12t8-8 12-3q6 0 11 3t8 7 4 10v2q12 111-77 128-26 5-50 0-9 0-16-7t-7-16 7-16 16-7q77 16 83-49 1-18-2-32z m7 248q-23 5-50 5t-40-2-27-5h-2l-1-1-1-1q-10-3-17-12t-7-20q0-14 10-24t24-10q18 2 31 7 4 0 17 2t32-4 40-12 41-26 36-42q26-58 10-112-7-17-7-32 0-9 5-16t13-11 17-4q13 0 21 6t11 23q17 54 13 98t-19 77-42 57-53 38-55 21z m-97-445q0-71-75-127t-179-60q-105-5-180 41t-74 116q0 70 74 120t180 55q52 3 98-6t81-28 55-48 20-63z m-282 83q-30-2-52-13t-35-23-22-29-12-30-4-27 0-19v-7-5q0-3 2-11t5-16 12-16 19-15q63-32 119-19t91 57q13 16 18 41t-2 49-22 45-47 32-70 6z m22-112q-1 3-2 7t0 7 3 7 6 6q5 3 10 4t9-1 6-5q4-6 2-14t-9-13-14-4-11 6z m-58-73q-20-2-34 8t-13 26q0 18 12 32t33 16q10 1 20-2t16-7 10-12 3-16q0-16-13-29t-34-16z" horiz-adv-x="1000" />

<glyph glyph-name="douban" unicode="&#xe805;" d="M685 343h-374v187h374v-187z m172 439q34 0 58-24t25-58v-714q0-34-25-58t-58-24h-715q-34 0-57 24t-24 58v714q0 35 24 58t57 24h715z m-674-125h633v62h-633v-62z m65-64v-311h500v311h-500z m589-499h-172l61 109-69 52q-5-12-9-23t-10-23-11-23q-17-29-31-57t-19-35h-155q-4 8-18 35t-31 57q-7 11-12 23t-9 23-9 23l-69-52 61-109h-172v-64h674v64z" horiz-adv-x="1000" />

<glyph glyph-name="qzone" unicode="&#xe806;" d="M800 787h-594q-58 0-99-41t-41-99v-594q0-58 41-99t99-41h594q38 0 70 19t51 51 19 70v594q0 58-42 99t-98 41z m122-716q0-58-41-99t-99-41h-558q-58 0-99 41t-41 99v558q0 58 41 99t99 41h558q58 0 99-41t41-99v-558z m-130 368l-86 12-108 15-49 99-38 77q-4 9-10 9t-11-9l-38-77-49-99-108-15-86-12q-6-1-9-4t-2-8 5-9l62-59 79-77-5-24-14-85-14-85q-2-8 3-12t13 1l76 40 77 40 21 10 21-10 76-40 76-40q9-5 14-1t2 12l-14 85-11 68q-82-9-164-9-67 0-129 6h-8l7 5q148 108 195 150-183 13-226 13h-11l-1 6q96 19 204 19 86 0 152-16l6 0-5-4q-5-4-13-10t-17-12-22-16-24-17-25-18-24-18-24-17-21-14-17-13-13-9q20-2 42-4t63-5 72-4v4l-5 24 79 77 62 59q7 7 5 13t-11 8z m-58-190l-1 6q-18-1-42-1h-13-16l3-13q36 4 69 8z" horiz-adv-x="1000" />

<glyph glyph-name="print" unicode="&#xe807;" d="M274 587q-26-1-51-1h-81q-18 0-36-5t-32-19-22-31-9-44v-74h891v40q0 15-1 29t0 17q0 13-5 29t-17 29-31 22-48 8h-130v-94h-428v94z m659-227v-51q0-22 0-51t1-56-11-47-25-29-32-16-31-4q-14-1-29-1t-29 1h-31l-44 125h-429l-42-125h-29-33q-20 0-44 1-24 0-40 9t-25 23-13 28-4 30v163h890z m-774-62q-11 0-20-8t-9-21 9-21 20-8q13 0 22 8t9 21-9 21-22 8z m150-121q-8-25-14-47-5-18-10-36t-8-24-3-15 1-14 10-10 21-4h36 65 79 79 62 35q23 0 33 12t2 37q-5 12-9 29t-9 34q-5 19-11 38h-359z m19 366v223q0 11 3 23t9 21 20 15 34 6h183q30 0 50-15t21-51v-222h-320z" horiz-adv-x="977.5" />

<glyph glyph-name="star-empty" unicode="&#xe808;" d="M0 489q0 21 31 26l280 40 126 254q11 23 27 23t28-23l125-254 280-40q32-5 32-26 0-12-15-27l-203-197 48-279q1-4 1-12 0-28-23-28-10 0-22 7l-251 132-250-132q-13-7-23-7-11 0-17 9t-6 19q0 4 1 12l48 279-203 197q-14 15-14 27z m123-34l171-165-41-235 211 111 211-111-41 235 171 165-235 35-106 213-105-213z" horiz-adv-x="928.6" />

<glyph glyph-name="star" unicode="&#xe809;" d="M0 489q0 21 31 26l280 40 126 254q11 23 27 23t28-23l125-254 280-40q32-5 32-26 0-12-15-27l-203-197 48-279q1-4 1-12 0-11-6-19t-17-9q-10 0-22 7l-251 132-250-132q-13-7-23-7-11 0-17 9t-6 19q0 4 1 12l48 279-203 197q-14 15-14 27z" horiz-adv-x="928.6" />

<glyph glyph-name="star-half-alt" unicode="&#xe80a;" d="M1 495q5 16 30 20l280 40 126 254q11 23 27 23 16 0 28-23l125-254 280-40q25-4 30-20t-13-33l-203-197 48-279q3-19-3-29t-19-11q-9 0-22 7l-251 132-250-132q-13-7-23-7-12 0-19 11t-3 29l48 279-203 197q-18 18-13 33z m463-329l33-17 178-94-34 198-7 37 28 26 143 139-198 29-37 6-17 34-89 179v-537z" horiz-adv-x="928.6" />

<glyph glyph-name="ok-circled" unicode="&#xe80b;" d="M0 350q0 117 58 215t155 156 216 58 215-58 156-156 57-215-57-215-156-156-215-58-216 58-155 156-58 215z m141-11q0-15 10-25l202-202q10-10 25-10 15 0 25 10l303 303q11 10 11 25 0 16-11 26l-50 50q-11 11-25 11t-26-11l-227-227-126 126q-11 11-25 11t-26-11l-50-50q-10-10-10-26z" horiz-adv-x="857.1" />

<glyph glyph-name="cancel-circled" unicode="&#xe80c;" d="M0 350q0 117 58 215t155 156 216 58 215-58 156-156 57-215-57-215-156-156-215-58-216 58-155 156-58 215z m216-126q0-15 11-26l50-50q10-11 25-11 15 0 26 11l101 101 101-101q10-11 25-11 15 0 25 11l51 50q10 11 10 26 0 14-10 25l-101 101 101 101q10 11 10 25 0 15-10 26l-51 50q-10 11-25 11-15 0-25-11l-101-101-101 101q-11 11-26 11-15 0-25-11l-50-50q-11-11-11-26 0-14 11-25l101-101-101-101q-11-11-11-25z" horiz-adv-x="857.1" />

<glyph glyph-name="cancel-circled2" unicode="&#xe80d;" d="M0 350q0 117 58 215t155 156 216 58 215-58 156-156 57-215-57-215-156-156-215-58-216 58-155 156-58 215z m125 0q0-83 41-152t110-111 153-41 152 41 110 111 41 152-41 152-110 111-152 41-153-41-110-111-41-152z m114-89q0 7 6 13l76 76-76 76q-6 6-6 13t6 13l81 82q6 5 13 5t13-5l77-77 76 77q6 5 13 5t13-5l81-82q6-5 6-13t-6-13l-76-76 76-76q6-6 6-13t-6-13l-81-82q-6-5-13-5t-13 5l-76 77-77-77q-5-5-13-5t-13 5l-81 82q-6 5-6 13z" horiz-adv-x="857.1" />

<glyph glyph-name="plus-circled" unicode="&#xe80e;" d="M0 350q0 117 58 215t155 156 216 58 215-58 156-156 57-215-57-215-156-156-215-58-216 58-155 156-58 215z m179-36q0-14 10-25t25-10h143v-143q0-15 11-25t25-11h71q15 0 25 11t11 25v143h143q14 0 25 10t11 25v72q0 14-11 25t-25 10h-143v143q0 15-11 25t-25 11h-71q-15 0-25-11t-11-25v-143h-143q-14 0-25-10t-10-25v-72z" horiz-adv-x="857.1" />

<glyph glyph-name="help-circled" unicode="&#xe80f;" d="M0 350q0 117 58 215t155 156 216 58 215-58 156-156 57-215-57-215-156-156-215-58-216 58-155 156-58 215z m233 167q-9-14 4-24l74-55q4-4 10-4 9 0 14 7 30 38 48 51 19 14 48 14 27 0 48-15t21-33q0-21-11-34t-38-25q-35-16-65-48t-29-70v-20q0-8 5-13t13-5h107q8 0 13 5t5 13q0 10 12 27t30 28q18 10 28 16t25 19 25 27 16 34 7 45q0 49-31 91t-77 65-95 23q-136 0-207-119z m124-435q0-8 5-13t13-5h107q8 0 13 5t5 13v107q0 8-5 13t-13 5h-107q-8 0-13-5t-5-13v-107z" horiz-adv-x="857.1" />

<glyph glyph-name="info-circled" unicode="&#xe810;" d="M0 350q0 117 58 215t155 156 216 58 215-58 156-156 57-215-57-215-156-156-215-58-216 58-155 156-58 215z m286-268q0-8 5-13t13-5h250q7 0 12 5t5 13v89q0 8-5 13t-12 5h-54v286q0 8-5 13t-13 5h-178q-8 0-13-5t-5-13v-89q0-8 5-13t13-5h53v-179h-53q-8 0-13-5t-5-13v-89z m71 500q0-8 5-13t13-5h107q8 0 13 5t5 13v89q0 8-5 13t-13 5h-107q-8 0-13-5t-5-13v-89z" horiz-adv-x="857.1" />

<glyph glyph-name="home" unicode="&#xe811;" d="M15 348q0 8 6 12l401 334q18 15 42 15t43-15l136-114v109q0 8 5 13t13 5h107q8 0 13-5t5-13v-227l122-102q5-5 6-12t-4-13l-34-41q-5-5-12-7h-2q-7 0-12 4l-386 322-386-322q-7-4-13-4-7 2-12 7l-35 41q-4 5-3 13z m128-319v267q0 1 0 2t0 2l321 264 321-264q1-1 1-4v-267q0-15-11-26t-25-10h-214v214h-143v-214h-214q-15 0-25 10t-11 26z" horiz-adv-x="928.6" />

<glyph glyph-name="download-cloud" unicode="&#xe812;" d="M0 243q0 72 39 134t105 92q-1 17-1 24 0 118 84 202t202 84q87 0 159-49t105-129q40 35 93 35 59 0 101-42t42-101q0-43-23-77 72-17 119-76t46-133q0-89-62-151t-152-63h-607q-103 0-177 73t-73 177z m286 89q0-8 5-13l196-196q5-5 13-5t13 5l196 196q5 6 5 13 0 8-5 13t-13 5h-125v196q0 8-5 13t-12 5h-108q-7 0-12-5t-5-13v-196h-125q-8 0-13-5t-5-13z" horiz-adv-x="1071.4" />

<glyph glyph-name="angle-double-left" unicode="&#xe813;" d="M25 314q0 8 6 13l260 260q5 6 13 6t12-6l28-28q6-5 6-13t-6-12l-219-220 219-219q6-6 6-13t-6-13l-28-28q-5-5-12-5t-13 5l-260 260q-6 6-6 13z m214 0q0 8 6 13l260 260q6 6 13 6t13-6l28-28q5-5 5-13t-5-12l-220-220 220-219q5-6 5-13t-5-13l-28-28q-6-5-13-5t-13 5l-260 260q-6 6-6 13z" horiz-adv-x="571.4" />

<glyph glyph-name="angle-double-right" unicode="&#xe814;" d="M7 82q0 7 6 13l219 219-219 220q-6 5-6 12t6 13l28 28q5 6 13 6t12-6l260-260q6-5 6-13t-6-13l-260-260q-5-5-12-5t-13 5l-28 28q-6 6-6 13z m215 0q0 7 5 13l219 219-219 220q-5 5-5 12t5 13l28 28q6 6 13 6t13-6l260-260q5-5 5-13t-5-13l-260-260q-6-5-13-5t-13 5l-28 28q-5 6-5 13z" horiz-adv-x="571.4" />

<glyph glyph-name="angle-double-up" unicode="&#xe815;" d="M43 118q0 7 6 13l260 260q5 5 12 5t13-5l260-260q6-6 6-13t-6-13l-28-28q-5-5-12-5t-13 5l-220 219-219-219q-5-5-13-5t-13 5l-27 28q-6 6-6 13z m0 214q0 7 6 13l260 260q5 6 12 6t13-6l260-260q6-6 6-13t-6-13l-28-28q-5-5-12-5t-13 5l-220 220-219-220q-5-5-13-5t-13 5l-27 28q-6 6-6 13z" horiz-adv-x="642.9" />

<glyph glyph-name="angle-double-down" unicode="&#xe816;" d="M43 368q0 7 6 13l27 28q6 5 13 5t13-5l219-220 220 220q5 5 13 5t12-5l28-28q6-6 6-13t-6-13l-260-260q-5-6-13-6t-12 6l-260 260q-6 6-6 13z m0 214q0 7 6 13l27 28q6 5 13 5t13-5l219-220 220 220q5 5 13 5t12-5l28-28q6-6 6-13t-6-13l-260-260q-5-5-13-5t-12 5l-260 260q-6 6-6 13z" horiz-adv-x="642.9" />

<glyph glyph-name="down-dir" unicode="&#xe817;" d="M0 457q0 15 11 25t25 11h500q14 0 25-11t10-25-10-25l-250-250q-11-11-25-11t-25 11l-250 250q-11 11-11 25z" horiz-adv-x="571.4" />

<glyph glyph-name="up-dir" unicode="&#xe818;" d="M0 171q0 15 11 26l250 250q10 10 25 10t25-10l250-250q10-11 10-26t-10-25-25-10h-500q-15 0-25 10t-11 25z" horiz-adv-x="571.4" />

<glyph glyph-name="left-dir" unicode="&#xe819;" d="M36 350q0 15 10 25l250 250q11 11 25 11t26-11 10-25v-500q0-14-10-25t-26-11-25 11l-250 250q-10 11-10 25z" horiz-adv-x="357.1" />

<glyph glyph-name="right-dir" unicode="&#xe81a;" d="M0 100v500q0 15 11 25t25 11 25-11l250-250q10-10 10-25t-10-25l-250-250q-11-11-25-11t-25 11-11 25z" horiz-adv-x="357.1" />

<glyph glyph-name="paper-plane" unicode="&#xe81b;" d="M0 276q-1 23 18 33l928 536q9 5 18 5 11 0 20-6 19-14 15-36l-142-857q-3-16-18-25-8-5-18-5-6 0-13 3l-253 103-135-164q-10-13-27-13-7 0-12 2-11 4-17 13t-7 21v194l482 591-596-516-221 91q-20 7-22 30z" horiz-adv-x="1000" />

<glyph glyph-name="video" unicode="&#xe81c;" d="M214-43v72q0 14-10 25t-25 10h-72q-14 0-25-10t-11-25v-72q0-14 11-25t25-11h72q14 0 25 11t10 25z m0 214v72q0 14-10 25t-25 11h-72q-14 0-25-11t-11-25v-72q0-14 11-25t25-10h72q14 0 25 10t10 25z m0 215v71q0 15-10 25t-25 11h-72q-14 0-25-11t-11-25v-71q0-15 11-25t25-11h72q14 0 25 11t10 25z m572-429v286q0 14-11 25t-25 11h-429q-14 0-25-11t-10-25v-286q0-14 10-25t25-11h429q15 0 25 11t11 25z m-572 643v71q0 15-10 26t-25 10h-72q-14 0-25-10t-11-26v-71q0-15 11-25t25-11h72q14 0 25 11t10 25z m786-643v72q0 14-11 25t-25 10h-71q-15 0-25-10t-11-25v-72q0-14 11-25t25-11h71q15 0 25 11t11 25z m-214 429v285q0 15-11 26t-25 10h-429q-14 0-25-10t-10-26v-285q0-15 10-25t25-11h429q15 0 25 11t11 25z m214-215v72q0 14-11 25t-25 11h-71q-15 0-25-11t-11-25v-72q0-14 11-25t25-10h71q15 0 25 10t11 25z m0 215v71q0 15-11 25t-25 11h-71q-15 0-25-11t-11-25v-71q0-15 11-25t25-11h71q15 0 25 11t11 25z m0 214v71q0 15-11 26t-25 10h-71q-15 0-25-10t-11-26v-71q0-15 11-25t25-11h71q15 0 25 11t11 25z m71 89v-750q0-37-26-63t-63-26h-893q-36 0-63 26t-26 63v750q0 37 26 63t63 27h893q37 0 63-27t26-63z" horiz-adv-x="1071.4" />

<glyph glyph-name="user" unicode="&#xe81d;" d="M786 66q0-67-41-106t-108-39h-488q-67 0-108 39t-41 106q0 30 2 58t8 61 15 60 24 55 34 45 48 30 62 11q5 0 24-12t41-27 60-27 75-12 74 12 61 27 41 27 24 12q34 0 62-11t48-30 34-45 24-55 15-60 8-61 2-58z m-179 498q0-88-63-151t-151-63-152 63-62 151 62 152 152 63 151-63 63-152z" horiz-adv-x="785.7" />

<glyph glyph-name="cog" unicode="&#xe81e;" d="M0 289v124q0 7 5 13t10 7l104 16q8 25 22 51-23 32-60 77-6 7-6 14 0 5 5 12 15 20 55 60t53 40q7 0 15-5l77-60q24 13 50 21 9 76 17 104 3 15 20 15h124q7 0 13-4t7-12l15-103q28-9 50-21l80 60q5 5 13 5 7 0 14-5 72-67 92-95 4-5 4-13 0-6-4-12-9-12-29-38t-30-39q14-28 23-55l102-15q7-1 12-7t4-13v-124q0-7-4-13t-11-7l-104-16q-10-30-21-51 19-28 59-77 6-6 6-14t-5-12q-15-21-55-61t-53-39q-7 0-14 5l-77 60q-25-13-51-21-9-76-16-104-4-16-20-16h-124q-8 0-14 5t-6 12l-16 103q-27 9-50 20l-79-59q-6-5-14-5-8 0-14 6-70 63-92 94-4 5-4 12 0 7 5 13 8 12 28 37t30 40q-15 28-23 55l-102 15q-7 1-11 7t-5 13z m286 61q0-59 42-101t101-42 101 42 41 101-41 101-101 42-101-42-42-101z" horiz-adv-x="857.1" />

<glyph glyph-name="calendar" unicode="&#xe81f;" d="M0-79v715q0 29 21 50t50 21h72v54q0 36 26 63t63 26h36q37 0 63-26t26-63v-54h214v54q0 36 27 63t63 26h35q37 0 63-26t27-63v-54h71q29 0 50-21t22-50v-715q0-29-22-50t-50-21h-786q-29 0-50 21t-21 50z m71 0h161v161h-161v-161z m0 197h161v178h-161v-178z m0 214h161v161h-161v-161z m143 268q0-7 6-13t12-5h36q7 0 12 5t6 13v161q0 7-6 12t-12 6h-36q-7 0-12-6t-6-12v-161z m54-679h178v161h-178v-161z m0 197h178v178h-178v-178z m0 214h178v161h-178v-161z m214-411h179v161h-179v-161z m0 197h179v178h-179v-178z m0 214h179v161h-179v-161z m161 268q0-7 5-13t13-5h35q8 0 13 5t5 13v161q0 7-5 12t-13 6h-35q-8 0-13-6t-5-12v-161z m53-679h161v161h-161v-161z m0 197h161v178h-161v-178z m0 214h161v161h-161v-161z" horiz-adv-x="928.6" />

<glyph glyph-name="login" unicode="&#xe820;" d="M0 243v214q0 15 11 25t25 11h250v161q0 14 10 25t25 10 26-10l303-304q11-10 11-25t-11-25l-303-304q-11-10-26-10t-25 10-10 25v161h-250q-15 0-25 11t-11 25z m499-206q0 6 2 13t5 11 12 3h178q37 0 63 27t27 63v392q0 37-27 63t-63 27h-174t-6 0-6 2-5 3-4 5-1 8q0 2-1 11t0 15 2 13 5 11 12 3h178q67 0 114-47t47-114v-392q0-67-47-114t-114-47h-178q-7 0-13 5t-5 13q0 2-1 11t0 15z" horiz-adv-x="857.1" />

<glyph glyph-name="location" unicode="&#xe821;" d="M0 493q0 118 84 202t202 84 202-84 83-202q0-61-18-100l-203-432q-9-18-27-29t-37-11-38 11-26 29l-204 432q-18 39-18 100z m143 0q0-59 42-101t101-42 101 42 42 101-42 101-101 42-101-42-42-101z" horiz-adv-x="571.4" />

<glyph glyph-name="opera" unicode="&#xe822;" d="M426-150c-568 0-568 1000 0 1000s567-1000 0-1000z m0 92c237 0 237 816 0 816s-238-816 0-816z" horiz-adv-x="851" />

<glyph glyph-name="edit" unicode="&#xe823;" d="M1000 556l-588-588-294 294 588 588z m-1000-412l294-294h-294v294z" horiz-adv-x="1000" />

<glyph glyph-name="ie" unicode="&#xe824;" d="M844 850c-81-1-181-46-281-106-239 35-498-103-509-386 60 93 224 257 367 301l0-13c-179-90-571-612-360-773 90-69 310 37 344 76 29-5 59-8 89-8 201 0 371 123 424 292l-301 0c-13-56-56-92-121-92-102 0-126 68-126 151l561 0c29 204-114 384-306 439 174 115 363 161 299-104l20 0c35 109 21 191-38 213-18 7-37 10-58 10-1 0-3 0-4 0z m-352-303c79 0 128-48 128-129l-252 0c0 77 46 129 124 129z m-367-422c58-83 149-145 256-171-77-58-226-84-266-52-48 40-36 124 10 223z" horiz-adv-x="944" />

<glyph glyph-name="firefox" unicode="&#xe825;" d="M504-137c-216 0-387 126-466 306-87 200-17 521 139 663l-6-156c8 9 68 12 78-1 32 62 136 109 220 110-32-26-106-124-99-174 40-13 103-13 136-15 10-6 8-40-12-68-27-37-97-49-97-49l8-106-77 38c-26-64 35-120 97-110 69 12 94 57 142 54 49-2 68-29 61-54-7-30-59-25-59-25-44-70-103-101-198-93 144-119 338-10 387 87 50 97 7 241-43 283 59-25 99-51 120-108 11 125-46 267-149 350 193-56 311-206 314-445 3-239-211-487-496-487z" horiz-adv-x="1000" />

<glyph glyph-name="facebook" unicode="&#xe826;" d="M857 82q0-66-47-113t-114-48h-107v340h114l16 125h-130v80q0 30 16 46t53 16l74 1v115q-53 5-100 5-76 0-122-45t-46-126v-92h-125v-125h125v-340h-303q-67 0-114 48t-47 113v536q0 66 47 113t114 48h535q67 0 114-48t47-113v-536z" horiz-adv-x="857.1" />

<glyph glyph-name="twitter" unicode="&#xe827;" d="M714 510q-31-14-67-19 38 22 52 65-37-21-75-29-34 37-85 37-49 0-83-34t-35-83q0-16 3-27-72 4-135 37t-107 86q-16-28-16-59 0-64 51-98-27 1-56 15v-1q0-42 28-75t68-40q-16-5-28-5-7 0-22 2 12-35 42-58t67-23q-64-50-145-50-15 0-28 1 82-52 180-52 62 0 117 20t93 53 68 76 42 91 13 94q0 10 0 15 35 25 58 61z m143 108v-536q0-66-47-113t-114-48h-535q-67 0-114 48t-47 113v536q0 66 47 113t114 48h535q67 0 114-48t47-113z" horiz-adv-x="857.1" />

<glyph glyph-name="google" unicode="&#xe828;" d="M1000 761v-824q0-36-26-62t-62-26h-824q-36 0-62 26t-26 62v824q0 36 26 62t62 26h824q36 0 62-26t26-62z m-237-239h121v60h-121v122h-60v-122h-122v-60h122v-121h60v121z m-215 163q0 11-22 11-3 1-52 1h-72q-24 0-61-4t-59-11q-58-19-92-62t-35-102q0-70 44-113 43-42 111-42h9q0-24 2-35t5-11 8-5 8-15q-55 0-102-12t-86-48-38-91q0-77 62-114t143-38q92 0 160 46t67 133q0 38-19 73t-44 55-43 39-20 28q0 11 15 26t34 29 33 46 15 74q0 76-44 107 1 0 16 2t20 3 17 5 16 10 4 15z m-135-170q0-35-15-60t-49-25q-43 0-68 46t-26 91q0 35 16 60t48 25q43 0 69-45t25-92z m55-345q0-44-43-71t-90-27-85 24-39 68q0 48 41 72t92 24q46 0 85-23t39-67z" horiz-adv-x="1000" />

<glyph glyph-name="eye" unicode="&#xe829;" d="M0 314q0 19 11 39 78 128 210 205t279 78 279-78 210-205q11-20 11-39t-11-38q-78-129-210-206t-279-77-279 77-210 206q-11 19-11 38z m71 0q75-114 187-182t242-68 242 68 187 182q-85 132-213 197 34-58 34-125 0-104-73-177t-177-73-177 73-73 177q0 67 34 125-128-65-213-197z m259 72q0-11 8-19t19-8 19 8 8 19q0 48 34 82t82 34q11 0 19 8t8 19-8 19-19 7q-70 0-120-50t-50-119z" horiz-adv-x="1000" />

<glyph glyph-name="chrome" unicode="&#xe82a;" d="M498 850c-147-1-291-67-387-186l154-237c39 111 150 182 267 170l414-22c-42 84-108 157-196 208-79 46-166 67-252 67z m-416-226c-52-79-82-173-82-274 0-250 183-457 423-494l128 252c-116-22-233 39-281 146l-188 370z m885-94l-282-15c76-89 82-221 13-317l-226-347c94-6 190 15 278 66 216 125 304 387 217 613z m-467-11c-93 0-169-76-169-169s76-169 169-169 169 76 169 169-76 169-169 169z" horiz-adv-x="1000" />

<glyph glyph-name="github-circled-alt2" unicode="&#xe82b;" d="M0 350q0-130 63-235 63-109 171-171t235-63q127 0 235 63 109 63 171 171t62 235q0 129-62 235-63 109-171 171t-235 62q-130 0-235-63-109-63-171-171t-63-234z m78 0q0 78 31 151t84 125q53 53 125 84t151 30 150-30 126-84q53-53 83-125t31-151q0-84-34-160t-97-132-142-80v138q0 51-42 80 103 9 150 52t48 136q0 72-45 121 9 27 9 51 0 36-16 67-33 0-59-11t-63-37q-46 10-94 10-55 0-103-11-37 27-63 38t-61 11q-16-31-16-67 0-25 9-51-45-48-45-121 0-93 48-136t151-52q-27-19-38-54-24-8-50-8-19 0-34 8-4 3-8 5t-7 7-7 6-6 8-5 7-6 7-5 7q-23 30-55 30-17 0-17-7 0-3 9-10 15-13 16-14 12-10 13-12 14-18 22-39 27-61 93-61 11 0 42 5v-103q-80 25-142 80t-96 132-35 160z" horiz-adv-x="937.5" />

<glyph glyph-name="sort-name-down" unicode="&#xe82c;" d="M665 51h98l-40 122-6 26q-2 9-2 11h-2l-2-11q0-1-1-10t-5-16z m-254-5q0-6-6-13l-178-178q-5-5-13-5-6 0-13 5l-178 179q-8 9-4 19 4 11 17 11h107v768q0 8 5 13t13 5h107q8 0 13-5t5-13v-768h107q8 0 13-5t5-13z m516-137v-59h-161v59h42l-26 80h-136l-26-80h42v-59h-160v59h39l128 370h90l129-370h39z m-50 642v-130h-326v51l206 295q7 10 12 15l6 5v2q-1 0-4-1t-4 0q-6-2-16-2h-130v-64h-67v128h317v-50l-206-295q-4-5-12-15l-6-6v-1l8 1q5 1 16 1h139v66h67z" horiz-adv-x="928.6" />

<glyph glyph-name="sort-name-up" unicode="&#xe82d;" d="M665 622h98l-40 122-6 26q-2 9-2 11h-2l-2-11q0 0-1-10t-5-16z m-254-576q0-6-6-13l-178-178q-5-5-13-5-6 0-13 5l-178 179q-8 9-4 19 4 11 17 11h107v768q0 8 5 13t13 5h107q8 0 13-5t5-13v-768h107q8 0 13-5t5-13z m466-66v-130h-326v50l206 295q7 10 12 16l6 5v1q-1 0-4 0t-4 0q-6-2-16-2h-130v-64h-67v128h317v-50l-206-296q-4-4-12-14l-6-7v-1l8 1q5 2 16 2h139v66h67z m50 501v-60h-161v60h42l-26 80h-136l-26-80h42v-60h-160v60h39l128 369h90l129-369h39z" horiz-adv-x="928.6" />

<glyph glyph-name="search" unicode="&#xe82e;" d="M643 386q0 103-74 176t-176 74-177-74-73-176 73-177 177-73 176 73 74 177z m286-465q0-29-22-50t-50-21q-30 0-50 21l-191 191q-100-69-223-69-80 0-153 31t-125 84-84 125-31 153 31 152 84 126 125 84 153 31 152-31 126-84 84-126 31-152q0-123-69-223l191-191q21-21 21-51z" horiz-adv-x="928.6" />
</font>
</defs>
</svg>
